<?xml version="1.0" encoding="UTF-8"?>
<svg width="2500px" height="5468px" viewBox="0 0 2500 5468" version="1.1" xmlns="http://www.w3.org/2000/svg" xmlns:xlink="http://www.w3.org/1999/xlink">
    <!-- Generator: Sketch 48.1 (47250) - http://www.bohemiancoding.com/sketch -->
    <title>bg-big</title>
    <desc>Created with Sketch.</desc>
    <defs></defs>
    <g id="Page-1" stroke="none" stroke-width="1" fill="none" fill-rule="evenodd" opacity="0.101">
        <g id="bg-big" fill="#ED1C24" fill-rule="nonzero">
            <g id="logo-bg" transform="translate(1980.000000, 1707.000000)">
                <path d="M0,55.8 L0,710.187 C0,760.915 10.146,806.569 30.437,857.297 C50.728,902.952 71.019,948.607 101.456,984.116 C131.893,1019.625 162.329,1055.135 202.911,1090.644 C243.493,1126.153 279,1156.59 309.439,1176.881 C339.876,1202.245 375.385,1222.536 410.894,1242.827 C446.403,1263.118 471.767,1278.336 486.985,1283.409 C502.203,1288.482 512.349,1298.627 522.494,1298.627 C527.567,1303.7 537.712,1303.7 542.785,1303.7 C552.931,1303.7 558.003,1303.7 563.076,1298.627 C573.222,1293.554 583.367,1288.481 598.585,1283.409 C613.803,1278.337 639.167,1263.118 674.676,1242.827 C710.185,1222.536 745.695,1202.245 776.131,1176.881 C806.567,1151.517 847.15,1126.153 882.659,1090.644 C923.241,1055.135 953.678,1019.625 984.114,984.116 C1014.55,948.607 1034.842,902.952 1055.133,857.297 C1075.424,811.642 1085.57,760.915 1085.57,710.187 L1085.57,55.8 C1085.57,40.582 1080.497,30.436 1070.352,15.218 C1065.28,5.073 1050.062,0 1034.844,0 L55.8,0 C40.582,0 25.364,5.073 15.218,15.218 C5.072,25.363 0,40.582 0,55.8 Z M162.328,162.328 L542.786,162.328 L542.786,1131.228 C476.84,1095.719 415.967,1055.137 360.167,1014.554 C228.274333,913.098 162.328,811.642333 162.328,710.187 L162.328,162.328 Z" id="Path_233-2"></path>
            </g>
            <g id="logo-bg-copy" transform="translate(-540.000000, 4138.000000)">
                <path d="M0,55.8 L0,710.187 C0,760.915 10.146,806.569 30.437,857.297 C50.728,902.952 71.019,948.607 101.456,984.116 C131.893,1019.625 162.329,1055.135 202.911,1090.644 C243.493,1126.153 279,1156.59 309.439,1176.881 C339.876,1202.245 375.385,1222.536 410.894,1242.827 C446.403,1263.118 471.767,1278.336 486.985,1283.409 C502.203,1288.482 512.349,1298.627 522.494,1298.627 C527.567,1303.7 537.712,1303.7 542.785,1303.7 C552.931,1303.7 558.003,1303.7 563.076,1298.627 C573.222,1293.554 583.367,1288.481 598.585,1283.409 C613.803,1278.337 639.167,1263.118 674.676,1242.827 C710.185,1222.536 745.695,1202.245 776.131,1176.881 C806.567,1151.517 847.15,1126.153 882.659,1090.644 C923.241,1055.135 953.678,1019.625 984.114,984.116 C1014.55,948.607 1034.842,902.952 1055.133,857.297 C1075.424,811.642 1085.57,760.915 1085.57,710.187 L1085.57,55.8 C1085.57,40.582 1080.497,30.436 1070.352,15.218 C1065.28,5.073 1050.062,0 1034.844,0 L55.8,0 C40.582,0 25.364,5.073 15.218,15.218 C5.072,25.363 0,40.582 0,55.8 Z M162.328,162.328 L542.786,162.328 L542.786,1131.228 C476.84,1095.719 415.967,1055.137 360.167,1014.554 C228.274333,913.098 162.328,811.642333 162.328,710.187 L162.328,162.328 Z" id="Path_233-2"></path>
            </g>
        </g>
    </g>
</svg>