<?xml version="1.0" encoding="UTF-8"?>
<svg width="79px" height="104px" viewBox="0 0 79 104" version="1.1" xmlns="http://www.w3.org/2000/svg" xmlns:xlink="http://www.w3.org/1999/xlink">
    <!-- Generator: Sketch 48.1 (47250) - http://www.bohemiancoding.com/sketch -->
    <title>icon-consulting-management</title>
    <desc>Created with Sketch.</desc>
    <defs></defs>
    <g id="Page-1" stroke="none" stroke-width="1" fill="none" fill-rule="evenodd" opacity="0.5">
        <g id="Home" transform="translate(-1113.000000, -2393.000000)" fill="#FFFFFF" fill-rule="nonzero">
            <g id="icon-consulting-management" transform="translate(1113.772000, 2393.271000)">
                <g id="Group_157">
                    <g id="Group_156">
                        <path d="M38.628,0 C17.3080448,0.0330388866 0.0330388866,17.3080448 0,38.628 C0,59.301 35.3,100.938 36.784,102.717 C37.2414942,103.259616 37.9183331,103.568305 38.628,103.558 C39.3345029,103.553595 40.0054731,103.247583 40.472,102.717 C41.96,100.938 77.256,59.3 77.256,38.628 C77.2345024,17.3032556 59.9527444,0.021497568 38.628,0 Z M38.628,97.347 C35.522,93.562 28.987,85.377 22.484,75.962 C10.967,59.236 4.853,46.328 4.853,38.628 C4.853,19.9743064 19.9748064,4.8525 38.6285,4.8525 C57.2821936,4.8525 72.404,19.9743064 72.404,38.628 C72.404,46.295 66.289,59.204 54.74,75.962 C48.3,85.377 41.734,93.562 38.628,97.347 Z" id="Path_222"></path>
                    </g>
                </g>
                <g id="Group_159" transform="translate(9.353000, 10.353000)">
                    <g id="Group_158">
                        <path d="M53.216,13.2 C52.7536984,12.4718927 51.9380734,12.0457288 51.0763631,12.0820401 C50.2146528,12.1183514 49.4377716,12.6116215 49.038363,13.3760401 C48.6389545,14.1404588 48.6776983,15.0598927 49.14,15.788 C54.8505807,24.8350987 53.71508,36.6000557 46.3796554,44.3880126 C39.0442308,52.1759694 27.3682166,54.0128872 17.9958582,48.8534662 C8.62349982,43.6940452 3.93043983,32.8460608 6.58726788,22.4825677 C9.24409594,12.1190745 18.5773771,4.86694108 29.276,4.853 C33.3972918,4.85728435 37.4458428,5.93905829 41.02,7.991 C42.1733336,8.65556898 43.6468077,8.26532159 44.32,7.117 C44.9681409,5.9617695 44.5815991,4.50061475 43.447,3.817 C39.1491056,1.3016446 34.2558234,-0.0163751869 29.276,-4.4408921e-15 C17.8393346,-0.000404465463 7.528572,6.88856531 3.15166936,17.4545503 C-1.22523328,28.0205354 1.19369442,40.1827111 9.2804951,48.2697978 C17.3672958,56.3568844 29.5293859,58.7762423 40.0955258,54.3997133 C50.6616656,50.0231844 57.551,39.7126654 57.551,28.276 C57.5771189,22.9395602 56.0726792,17.7075111 53.216,13.2 Z" id="Path_223"></path>
                    </g>
                </g>
                <g id="Group_161" transform="translate(28.473000, 19.379000)">
                    <g id="Group_160">
                        <path d="M16.885,16.629 C18.2207616,16.6191978 19.3011978,15.5387616 19.311,14.203 L19.311,12.52 C19.3108461,8.68000349 16.4026398,5.46407787 12.582,5.079 L12.582,2.426 C12.582,1.08588105 11.4956189,-0.0005 10.1555,-0.0005 C8.81538105,-0.0005 7.729,1.08588105 7.729,2.426 L7.729,5.208 C3.52315304,6.02094202 0.624651388,9.8981058 1.03507332,14.1620919 C1.44549525,18.4260779 5.03030933,21.6792024 9.314,21.675 L11,21.675 C12.2506977,21.6537413 13.4155957,22.3088106 14.0471619,23.3885424 C14.6787282,24.4682742 14.6787282,25.8047258 14.0471619,26.8844576 C13.4155957,27.9641894 12.2506977,28.6192587 11,28.598 L8.473,28.598 C7.7771435,28.6006723 7.10903052,28.3253581 6.61707594,27.8332158 C6.12512135,27.3410734 5.85006212,26.6728554 5.853,25.977 C5.853,24.6368811 4.76661895,23.5505 3.4265,23.5505 C2.08638105,23.5505 1,24.6368811 1,25.977 C1.00015387,29.8169965 3.90836023,33.0329221 7.729,33.418 L7.729,36.071 C7.729,37.4111189 8.81538105,38.4975 10.1555,38.4975 C11.4956189,38.4975 12.582,37.4111189 12.582,36.071 L12.582,33.29 C16.7872767,32.4771615 19.6856546,28.6008867 19.2760578,24.3374035 C18.866461,20.0739204 15.2831123,16.820351 11,16.823 L9.314,16.823 C7.42520104,16.7908953 5.91083664,15.2505718 5.91083664,13.3615 C5.91083664,11.4724282 7.42520104,9.93210475 9.314,9.9 L11.837,9.9 C12.5328554,9.89706212 13.2010734,10.1721214 13.6932158,10.6640759 C14.1853581,11.1560305 14.4606723,11.8241435 14.458,12.52 L14.458,14.2 C14.4564035,14.8443522 14.7115278,15.4628024 15.1669673,15.9186172 C15.6224069,16.3744321 16.2406467,16.6300657 16.885,16.629 Z" id="Path_224"></path>
                    </g>
                </g>
            </g>
        </g>
    </g>
</svg>