<?xml version="1.0" encoding="UTF-8"?>
<svg width="122px" height="112px" viewBox="0 0 122 112" version="1.1" xmlns="http://www.w3.org/2000/svg" xmlns:xlink="http://www.w3.org/1999/xlink">
    <!-- Generator: Sketch 48.1 (47250) - http://www.bohemiancoding.com/sketch -->
    <title>icon-treasury-cash-flow</title>
    <desc>Created with Sketch.</desc>
    <defs></defs>
    <g id="Page-1" stroke="none" stroke-width="1" fill="none" fill-rule="evenodd">
        <g id="Home" transform="translate(-951.000000, -4865.000000)" fill="#ED1C24" fill-rule="nonzero">
            <g id="icon-treasury-cash-flow" transform="translate(951.000000, 4865.000000)">
                <path d="M100.91,0 C89.2954517,-7.11185969e-16 79.88,9.41545171 79.88,21.03 C79.88,32.6445483 89.2954517,42.06 100.91,42.06 C112.524548,42.06 121.94,32.6445483 121.94,21.03 C121.928974,9.42002174 112.519978,0.0110256278 100.91,-2.33701947e-15 Z M98.81,14.719 L98.81,18.934 L94.595,18.934 L94.595,23.149 L98.81,23.149 L98.81,27.364 L94.595,27.364 C94.595,30.8497452 97.4207548,33.6755 100.9065,33.6755 C104.392245,33.6755 107.218,30.8497452 107.218,27.364 L111.434,27.364 C111.434,33.1646467 106.731647,37.867 100.931,37.867 C95.1303533,37.867 90.428,33.1646467 90.428,27.364 L86.213,27.364 L86.213,23.126 L90.428,23.126 L90.428,18.91 L86.213,18.91 L86.213,14.719 L90.428,14.719 C90.428,8.91835327 95.1303533,4.216 100.931,4.216 C106.731647,4.216 111.434,8.91835327 111.434,14.719 L107.218,14.719 C107.218,11.2332548 104.392245,8.4075 100.9065,8.4075 C97.4207548,8.4075 94.595,11.2332548 94.595,14.719 L98.81,14.719 Z" id="Path_229"></path>
                <path d="M42.06,21.03 C42.06,9.41545171 32.6445483,7.11185969e-16 21.03,0 C9.41545171,-7.11185969e-16 1.42237194e-15,9.41545171 0,21.03 C-1.42237194e-15,32.6445483 9.41545171,42.06 21.03,42.06 C32.6399783,42.0489744 42.0489744,32.6399783 42.06,21.03 Z M31.533,12.623 L23.126,12.623 L23.126,16.838 L31.533,16.838 L31.533,21.053 L23.126,21.053 L23.126,23.792 L19.387,29.392 L24.793,36.608 L21.435,39.108 L14.242,29.508 L18.91,22.482 L18.91,21.006 L10.5,21.006 L10.5,16.814 L18.91,16.814 L18.91,12.623 L10.5,12.623 L10.5,8.407 L18.91,8.407 L18.91,4.215 L23.125,4.215 L23.125,8.431 L31.532,8.431 L31.533,12.623 Z" id="Path_230"></path>
                <g id="Group_177" transform="translate(45.537000, 42.941000)">
                    <g id="Group_176">
                        <path d="M27.913,27.7 C28.6899818,27.7005311 29.435293,27.3921115 29.9847022,26.8427022 C30.5341115,26.293293 30.8425311,25.5479818 30.842,24.771 L30.842,21.651 C30.842,14.8639727 25.3400273,9.362 18.553,9.362 L18.362,9.362 L18.362,2.932 C18.362,1.31408183 17.0504182,0.0025 15.4325,0.0025 C13.8145818,0.0025 12.503,1.31408183 12.503,2.932 L12.503,9.432 C5.15646978,10.1573316 -0.329221632,16.5184787 0.0332138781,23.8918261 C0.395649388,31.2651736 6.47875032,37.0576589 13.861,37.059 L16.981,37.059 C21.399278,37.059 24.981,40.640722 24.981,45.059 C24.981,49.477278 21.399278,53.059 16.981,53.059 L12.289,53.059 C8.73872343,53.0567935 5.86120651,50.1792766 5.859,46.629 C5.859,45.0110818 4.54741817,43.6995 2.9295,43.6995 C1.31158183,43.6995 -5.68434189e-14,45.0110818 -5.68434189e-14,46.629 C-5.68434189e-14,53.4160273 5.50197271,58.918 12.289,58.918 L12.48,58.918 L12.48,65.348 C12.48,66.9659182 13.7915818,68.2775 15.4095,68.2775 C17.0274182,68.2775 18.339,66.9659182 18.339,65.348 L18.339,58.848 C25.6837216,58.112473 31.1633154,51.7496788 30.8012325,44.3771058 C30.4391496,37.0045329 24.3624487,31.2092931 16.981,31.197 L13.861,31.197 C9.442722,31.197 5.861,27.615278 5.861,23.197 C5.861,18.778722 9.442722,15.197 13.861,15.197 L18.553,15.197 C22.1032766,15.1992065 24.9807935,18.0767234 24.983,21.627 L24.983,24.747 C24.9776751,25.5278198 25.2839223,26.2785315 25.8338953,26.8328216 C26.3838683,27.3871118 27.1321625,27.6992195 27.913,27.7 Z" id="Path_231"></path>
                    </g>
                </g>
            </g>
        </g>
    </g>
</svg>