<?xml version="1.0" encoding="UTF-8"?>
<svg width="63px" height="122px" viewBox="0 0 63 122" version="1.1" xmlns="http://www.w3.org/2000/svg" xmlns:xlink="http://www.w3.org/1999/xlink">
    <!-- Generator: Sketch 48.1 (47250) - http://www.bohemiancoding.com/sketch -->
    <title>icon-consulting-strategy</title>
    <desc>Created with Sketch.</desc>
    <defs></defs>
    <g id="Page-1" stroke="none" stroke-width="1" fill="none" fill-rule="evenodd" opacity="0.497">
        <g id="Home" transform="translate(-1116.000000, -3085.000000)" fill="#FFFFFF" fill-rule="nonzero">
            <g id="icon-consulting-strategy" transform="translate(1115.442000, 3085.974000)">
                <g id="Group_171" transform="translate(0.038000, 0.000000)">
                    <g id="Group_170">
                        <path d="M62.962,107.689 C62.9513806,107.005449 62.5469843,106.389505 61.924,106.108 C59.234,104.881 49.724,98.674 49.724,92.585 L49.724,85.741 L58.671,76.8 C59.0031962,76.468422 59.1899128,76.0183595 59.19,75.549 C59.19,66.463 54.59,56.763 45.502,46.685 C43.0896023,44.0095512 40.520411,41.4797626 37.808,39.109 L57.062,43.236 C57.9127135,43.4157427 58.7694024,42.9574352 59.092,42.15 L62.868,32.686 C63.1367249,32.0267009 62.978479,31.2702857 62.468,30.774 L41.655,9.959 C41.323422,9.62680378 40.8733595,9.44008721 40.404,9.44 L36.51,9.44 L36.51,1.77 C36.5105315,1.30040407 36.3242206,0.849888757 35.9921659,0.517834078 C35.6601112,0.1857794 35.2095959,-0.000531518257 34.74,-1.96287815e-16 L30.962,-1.96287815e-16 C30.4220868,-0.000745555103 29.9106486,0.242114102 29.57,0.661 L22.349,9.653 C15.8069227,11.2605204 10.2006484,15.4609842 6.82,21.288 C1.982,29.406 0.141,41.112 1.368,56.075 C1.90942839,62.8001888 2.9987093,69.4699859 4.625,76.018 C4.7176932,76.3686037 4.91515024,76.6825814 5.191,76.918 L15.906,85.839 L15.906,92.565 C15.906,94.429 13.971,97.38 10.619,100.613 C8.53957068,102.699484 6.21808868,104.529812 3.704,106.065 C3.07379958,106.348195 2.66774646,106.974096 2.666,107.665 L2.666,119.017 C2.67308033,119.991596 3.46140383,120.77992 4.436,120.787 L61.196,120.787 C62.1705962,120.77992 62.9589197,119.991596 62.966,119.017 L62.966,107.689 L62.962,107.689 Z M11.233,77.316 L37.713,77.316 C38.690544,77.316 39.483,76.523544 39.483,75.546 C39.483,74.568456 38.690544,73.776 37.713,73.776 L7.74,73.776 C6.23,67.356 0.377,38.988 9.888,23.1 C12.8888726,17.9258984 17.9213573,14.2467509 23.762,12.957 C24.1440533,12.8658754 24.4847368,12.6497806 24.73,12.343 L31.762,3.54 L32.922,3.54 L32.922,11.234 C32.9225301,11.7029028 33.1093096,12.15239 33.4412491,12.4835793 C33.7731885,12.8147686 34.2230972,13.0005307 34.692,13 L39.625,13 L59.095,32.47 L56.31,39.46 L31.294,34.1 C30.4777861,33.9369848 29.656775,34.357432 29.312,35.115 C28.9757671,35.8804174 29.22196,36.7767265 29.902,37.263 C30.162,37.452 54.14,54.775 55.579,73.773 L46.139,73.773 C45.161456,73.773 44.369,74.565456 44.369,75.543 C44.369,76.520544 45.161456,77.313 46.139,77.313 L53.125,77.313 L47.225,83.213 L18.314,83.213 L11.233,77.316 Z M46.162,86.779 L46.162,90.791 L19.446,90.791 L19.446,86.779 L46.162,86.779 Z M13.098,103.179 C16.498,99.879 18.55,96.925 19.211,94.352 L46.327,94.352 C47.2,99.052 51.327,103.179 55.012,105.94 L10.006,105.94 C11.045,105.093 12.107,104.149 13.098,103.182 L13.098,103.179 Z M59.426,117.292 L6.206,117.292 L6.206,109.48 L59.406,109.48 L59.406,117.292 L59.426,117.292 Z" id="Path_228"></path>
                    </g>
                </g>
                <g id="Group_173" transform="translate(34.754000, 18.810000)">
                    <g id="Group_172">
                        <circle id="Ellipse_254" cx="1.888" cy="1.888" r="1.888"></circle>
                    </g>
                </g>
            </g>
        </g>
    </g>
</svg>