<?xml version="1.0" encoding="UTF-8"?>
<svg width="118px" height="93px" viewBox="0 0 118 93" version="1.1" xmlns="http://www.w3.org/2000/svg" xmlns:xlink="http://www.w3.org/1999/xlink">
    <!-- Generator: Sketch 48.1 (47250) - http://www.bohemiancoding.com/sketch -->
    <title>icon-consulting-risk</title>
    <desc>Created with Sketch.</desc>
    <defs></defs>
    <g id="Page-1" stroke="none" stroke-width="1" fill="none" fill-rule="evenodd" opacity="0.5">
        <g id="Home" transform="translate(-1094.000000, -2746.000000)" fill="#FFFFFF" fill-rule="nonzero">
            <g id="icon-consulting-risk" transform="translate(1094.366000, 2746.536000)">
                <g id="Group_164">
                    <g id="Group_163">
                        <path d="M24.362,0 C10.9072389,-8.23866504e-16 1.64773301e-15,10.9072389 0,24.362 C-1.64773301e-15,37.8167611 10.9072389,48.724 24.362,48.724 C37.8167611,48.724 48.724,37.8167611 48.724,24.362 C48.7135222,10.9115814 37.8124186,0.0104777709 24.362,0 Z M24.362,43.62 C13.7261003,43.62 5.104,34.9978997 5.104,24.362 C5.104,13.7261003 13.7261003,5.104 24.362,5.104 C34.9978997,5.104 43.62,13.7261003 43.62,24.362 C43.6056776,34.9919615 34.9919615,43.6056776 24.362,43.62 Z" id="Path_225"></path>
                    </g>
                </g>
                <g id="Group_166" transform="translate(74.025000, 50.846000)">
                    <g id="Group_165">
                        <path d="M30.67,21.253 L39.619,12.304 C42.2122528,9.71074691 42.2122526,5.50625322 39.6189997,2.9130003 C37.0257468,0.31974737 32.8212531,0.319747237 30.228,2.913 L21.245,11.862 L12.33,2.913 C10.6524594,1.23545942 8.20739076,0.580305249 5.91582772,1.19432772 C3.62426467,1.80835018 1.83435018,3.59826467 1.22032772,5.88982772 C0.606305249,8.18139076 1.26145942,10.6264594 2.939,12.304 L11.888,21.253 L2.939,30.202 C1.26145931,31.8795406 0.606305056,34.3246093 1.22032751,36.6161724 C1.83434996,38.9077355 3.6242645,40.69765 5.91582762,41.3116725 C8.20739073,41.9256949 10.6524594,41.2705407 12.33,39.593 L21.279,30.644 L30.228,39.593 C31.9055406,41.2705407 34.3506093,41.9256949 36.6421724,41.3116725 C38.9337355,40.69765 40.72365,38.9077355 41.3376725,36.6161724 C41.9516949,34.3246093 41.2965407,31.8795406 39.619,30.202 L30.67,21.253 Z M36.046,35.918 C35.7595568,36.2289934 35.3599132,36.4114891 34.9372989,36.4242842 C34.5146845,36.4370793 34.1047326,36.2790949 33.8,35.986 L23.048,25.234 C22.0482455,24.2469493 20.4407545,24.2469493 19.441,25.234 L8.69,35.986 C8.38526736,36.2790949 7.97531545,36.4370793 7.5527011,36.4242842 C7.13008675,36.4114891 6.73044324,36.2289934 6.444,35.918 C5.90163281,35.3086099 5.93152079,34.3812036 6.512,33.808 L17.264,23.056 C18.2510507,22.0562455 18.2510507,20.4487545 17.264,19.449 L6.546,8.697 C6.1569377,8.30793779 6.00499154,7.7408672 6.14739819,7.20939827 C6.28980484,6.67792933 6.70492933,6.26280484 7.23639827,6.12039819 C7.7678672,5.97799154 8.33493779,6.1299377 8.724,6.519 L19.476,17.271 C20.4757545,18.2580507 22.0832455,18.2580507 23.083,17.271 L33.834,6.525 C34.4354381,5.92356191 35.4105619,5.92356191 36.012,6.525 C36.6134381,7.12643809 36.6134381,8.10156191 36.012,8.703 L25.26,19.45 C24.2729493,20.4497545 24.2729493,22.0572455 25.26,23.057 L36.012,33.809 C36.5660627,34.3978168 36.5807946,35.3116294 36.046,35.918 Z" id="Path_226"></path>
                    </g>
                </g>
                <g id="Group_168" transform="translate(0.000000, 10.902000)">
                    <g id="Group_167">
                        <path d="M115.991,11.486 L102.347,0.564 C101.629789,-0.00762500055 100.662101,-0.153200931 99.8084539,0.182109255 C98.9548068,0.517419442 98.3448903,1.28267415 98.2084539,2.18960932 C98.0720175,3.09654448 98.4297893,4.00737507 99.147,4.579 L107.109,10.942 L73.494,10.942 C66.0588388,10.9563048 60.0348566,16.9798399 60.02,24.415 L60.02,51.703 C60.0122928,56.3036495 56.2846495,60.0312928 51.684,60.039 L2.552,60.039 C1.18294231,60.0932334 0.10101485,61.2188685 0.10101485,62.589 C0.10101485,63.9591315 1.18294231,65.0847666 2.552,65.139 L51.652,65.139 C59.0852121,65.1236013 65.1074977,59.1022097 65.124,51.669 L65.124,24.381 C65.1317072,19.7803505 68.8593505,16.0527072 73.46,16.045 L107.077,16.045 L99.115,22.408 C98.3977893,22.9796249 98.0400175,23.8904555 98.1764539,24.7973907 C98.3128902,25.7043259 98.9228068,26.4695806 99.7764539,26.8048908 C100.630101,27.140201 101.597789,26.994625 102.315,26.423 L115.959,15.501 C116.568327,15.0152103 116.925877,14.280379 116.932088,13.5011281 C116.938299,12.7218772 116.592506,11.9814402 115.991,11.486 Z" id="Path_227"></path>
                    </g>
                </g>
            </g>
        </g>
    </g>
</svg>