<?xml version="1.0" encoding="UTF-8"?>
<svg width="65px" height="78px" viewBox="0 0 65 78" version="1.1" xmlns="http://www.w3.org/2000/svg" xmlns:xlink="http://www.w3.org/1999/xlink">
    <!-- Generator: Sketch 48.1 (47250) - http://www.bohemiancoding.com/sketch -->
    <title>logo-small-color</title>
    <desc>Created with Sketch.</desc>
    <defs></defs>
    <g id="Page-1" stroke="none" stroke-width="1" fill="none" fill-rule="evenodd">
        <g id="Home" transform="translate(-708.000000, -1.000000)" fill="#ED1C24" fill-rule="nonzero">
            <g id="logo-small-color" transform="translate(707.000000, 0.000000)">
                <g id="Group_92">
                    <g id="Symbol_13_1">
                        <path d="M1,4.3 L1,43 C1.01844182,45.9905331 1.63026241,48.947666 2.8,51.7 C3.83646655,54.3868914 5.25069446,56.9122984 7,59.2 C8.83967465,61.4470582 10.8453005,63.5529654 13,65.5 C14.9958664,67.3247531 17.0996638,69.0278273 19.3,70.6 C21.1831157,72.0715398 23.1906847,73.3764596 25.3,74.5 C26.7414465,75.4052557 28.2452102,76.207263 29.8,76.9 C30.7,77.2 31.3,77.8 31.9,77.8 C32.2520035,78.0386122 32.6771205,78.1448915 33.1,78.1 C33.7,78.1 34,78.1 34.3,77.8 C34.97546,77.445698 35.677602,77.14478 36.4,76.9 C37.9547854,76.2072539 39.4585484,75.405247 40.9,74.5 C43.0093153,73.3764596 45.0168843,72.0715398 46.9,70.6 C49.0862157,69.0093529 51.1890044,67.3070954 53.2,65.5 C55.3546995,63.5529654 57.3603254,61.4470582 59.2,59.2 C60.9493055,56.9122984 62.3635334,54.3868914 63.4,51.7 C64.5986269,48.9567757 65.2116905,45.9936348 65.2,43 L65.2,4.3 C65.1721208,3.42278924 64.8557912,2.57924376 64.3,1.9 C63.8043489,1.25495364 63.0089309,0.914060217 62.2,1 L4.3,1 C3.41331133,0.975943878 2.55223539,1.29884735 1.9,1.9 C1.29884735,2.55223539 0.975943878,3.41331133 1,4.3 Z M10.6,10.6 L33.1,10.6 L33.1,67.9 C29.3490156,65.8453414 25.7408327,63.5401134 22.3,61 C14.5,55 10.6,49 10.6,43 L10.6,10.6 Z" id="Path_211"></path>
                    </g>
                </g>
            </g>
        </g>
    </g>
</svg>