<?xml version="1.0" encoding="UTF-8"?>
<svg width="251px" height="106px" viewBox="0 0 251 106" version="1.1" xmlns="http://www.w3.org/2000/svg" xmlns:xlink="http://www.w3.org/1999/xlink">
    <!-- Generator: Sketch 48.1 (47250) - http://www.bohemiancoding.com/sketch -->
    <title>logo-capital-force</title>
    <desc>Created with Sketch.</desc>
    <defs>
        <polygon id="path-1" points="0.0003 0.31 88.0733 0.31 88.0733 106 0.0003 106"></polygon>
    </defs>
    <g id="Page-1" stroke="none" stroke-width="1" fill="none" fill-rule="evenodd">
        <g id="logo-capital-force" transform="translate(0.000000, -1.000000)">
            <g id="Group-3" transform="translate(0.000000, 0.690000)">
                <mask id="mask-2" fill="white">
                    <use xlink:href="#path-1"></use>
                </mask>
                <g id="Clip-2"></g>
                <path d="M13.2113,13.5194 L44.0373,13.5194 L44.0373,91.7554 C38.5793,88.8644 33.6933,85.7224 29.3813,82.3274 C18.6013,73.8874 13.2113,65.6314 13.2113,57.5574 L13.2113,13.5194 Z M0.0003,4.7124 L0.0003,57.5574 C0.0003,61.5024 0.7673,65.4134 2.3043,69.2894 C3.8433,73.1654 5.7473,76.6064 8.0173,79.6114 C10.2883,82.6164 12.9953,85.5414 16.1353,88.3854 C19.2793,91.2294 22.1793,93.5904 24.8403,95.4734 C27.5003,97.3524 30.2763,99.1314 33.1653,100.8044 C36.0553,102.4774 38.1093,103.6144 39.3243,104.2104 C40.5393,104.8074 41.5143,105.2664 42.2473,105.5854 C42.7983,105.8614 43.3943,106.0004 44.0373,106.0004 C44.6803,106.0004 45.2763,105.8614 45.8273,105.5854 C46.5613,105.2664 47.5353,104.8074 48.7513,104.2104 C49.9663,103.6144 52.0193,102.4774 54.9093,100.8044 C57.7993,99.1314 60.5753,97.3524 63.2343,95.4734 C65.8953,93.5904 68.7963,91.2304 71.9393,88.3854 C75.0813,85.5414 77.7873,82.6164 80.0583,79.6114 C82.3293,76.6064 84.2323,73.1654 85.7693,69.2894 C87.3063,65.4134 88.0733,61.5024 88.0733,57.5574 L88.0733,4.7124 C88.0733,3.5194 87.6383,2.4884 86.7663,1.6174 C85.8953,0.7454 84.8623,0.3094 83.6693,0.3094 L4.4023,0.3094 C3.2103,0.3094 2.1773,0.7454 1.3053,1.6174 C0.4353,2.4884 0.0003,3.5194 0.0003,4.7124 Z" id="Fill-1" fill="#ED1C24" mask="url(#mask-2)"></path>
            </g>
            <path d="M119.5307,30.7441 C119.6937,30.6631 119.9237,30.6211 120.2197,30.6211 C120.5157,30.6211 120.7707,30.7401 120.9847,30.9731 C121.1987,31.2091 121.3067,31.4791 121.3067,31.7851 C121.3067,32.3361 121.0817,32.7241 120.6327,32.9491 C119.6737,33.4801 118.6477,33.9291 117.5557,34.2961 C116.4637,34.6631 115.1567,34.8481 113.6357,34.8481 C112.1147,34.8481 110.7007,34.5971 109.3957,34.0981 C108.0887,33.5981 106.9557,32.8681 105.9957,31.9081 C103.9547,29.9071 102.9337,27.2231 102.9337,23.8551 C102.9337,20.4861 103.9547,17.8021 105.9957,15.8011 C107.9757,13.8421 110.5277,12.8611 113.6517,12.8611 C115.1617,12.8611 116.4637,13.0451 117.5557,13.4131 C118.6477,13.7811 119.4847,14.1221 120.0667,14.4391 C120.6487,14.7551 120.9997,15.0101 121.1227,15.2041 C121.2447,15.3981 121.3067,15.6431 121.3067,15.9391 C121.3067,16.2351 121.1987,16.5011 120.9847,16.7351 C120.7707,16.9701 120.5157,17.0881 120.2197,17.0881 C119.9237,17.0881 119.6937,17.0471 119.5307,16.9651 C118.7137,16.5361 117.8767,16.1891 117.0197,15.9241 C116.1627,15.6591 115.0947,15.5261 113.8197,15.5261 C112.5437,15.5261 111.3897,15.7401 110.3597,16.1691 C109.3287,16.5981 108.4657,17.1901 107.7717,17.9451 C106.4047,19.4351 105.7207,21.4051 105.7207,23.8551 C105.7207,26.3051 106.4047,28.2741 107.7717,29.7651 C109.2617,31.3771 111.3137,32.1831 113.9267,32.1831 C115.1307,32.1831 116.1627,32.0511 117.0197,31.7851 C117.8767,31.5201 118.7137,31.1731 119.5307,30.7441" id="Fill-4" fill="#231F20"></path>
            <path d="M141.0873,26.5185 L136.9533,16.5665 L132.8193,26.5185 L141.0873,26.5185 Z M146.6913,32.7035 C146.7933,32.9495 146.8443,33.2095 146.8443,33.4845 C146.8443,33.7605 146.7223,34.0315 146.4773,34.2965 C146.2323,34.5605 145.8443,34.6945 145.3133,34.6945 C144.7813,34.6945 144.3953,34.4085 144.1503,33.8365 L142.1593,29.0605 L131.7483,29.0605 L129.7583,33.8365 C129.5133,34.4085 129.1243,34.6945 128.5943,34.6945 C128.0633,34.6945 127.6763,34.5605 127.4303,34.2965 C127.1863,34.0315 127.0633,33.7605 127.0633,33.4845 C127.0633,33.2095 127.1133,32.9495 127.2163,32.7035 L135.0253,14.2695 C135.3923,13.4335 135.9833,13.0155 136.8013,13.0155 L137.1073,13.0155 C137.9233,13.0155 138.5163,13.4335 138.8833,14.2695 L146.6913,32.7035 Z" id="Fill-6" fill="#231F20"></path>
            <path d="M162.3383,24.1303 C164.4403,24.1303 165.9613,23.6813 166.9003,22.7823 C167.6353,22.0883 168.0023,21.1503 168.0023,19.9653 C168.0023,18.0673 167.0543,16.8013 165.1543,16.1693 C164.4203,15.9233 163.4813,15.8013 162.3383,15.8013 L157.0403,15.8013 L157.0403,24.1303 L162.3383,24.1303 Z M162.6133,13.1683 C165.4503,13.1683 167.5843,13.9023 169.0133,15.3723 C170.1963,16.5563 170.7893,18.0883 170.7893,19.9653 C170.7893,21.8443 170.1963,23.3753 169.0133,24.5593 C167.5843,26.0283 165.4503,26.7633 162.6133,26.7633 L157.0403,26.7633 L157.0403,33.3163 C157.0403,33.7043 156.9023,34.0313 156.6273,34.2963 C156.3523,34.5613 156.0203,34.6943 155.6323,34.6943 C155.2433,34.6943 154.9173,34.5613 154.6523,34.2963 C154.3863,34.0313 154.2543,33.7043 154.2543,33.3163 L154.2543,14.5763 C154.2543,14.1893 154.3863,13.8573 154.6523,13.5813 C154.9173,13.3053 155.2433,13.1683 155.6323,13.1683 L162.6133,13.1683 Z" id="Fill-8" fill="#231F20"></path>
            <path d="M179.7914,13.0151 C180.1794,13.0151 180.5114,13.1531 180.7864,13.4281 C181.0624,13.7041 181.2004,14.0361 181.2004,14.4231 L181.2004,33.3161 C181.2004,33.7041 181.0624,34.0321 180.7864,34.2961 C180.5114,34.5611 180.1794,34.6941 179.7914,34.6941 C179.4034,34.6941 179.0764,34.5611 178.8124,34.2961 C178.5464,34.0321 178.4134,33.7041 178.4134,33.3161 L178.4134,14.4231 C178.4134,14.0361 178.5464,13.7041 178.8124,13.4281 C179.0764,13.1531 179.4034,13.0151 179.7914,13.0151" id="Fill-10" fill="#231F20"></path>
            <path d="M205.7416,13.5507 C205.9966,13.8057 206.1256,14.1167 206.1256,14.4847 C206.1256,14.8527 205.9966,15.1577 205.7416,15.4037 C205.4866,15.6487 205.1756,15.7707 204.8076,15.7707 L198.5926,15.7707 L198.5926,33.3167 C198.5926,33.7047 198.4546,34.0317 198.1796,34.2967 C197.9026,34.5607 197.5716,34.6947 197.1836,34.6947 C196.7956,34.6947 196.4696,34.5607 196.2036,34.2967 C195.9376,34.0317 195.8056,33.7047 195.8056,33.3167 L195.8056,15.7707 L189.5586,15.7707 C189.1916,15.7707 188.8856,15.6487 188.6396,15.4037 C188.3956,15.1577 188.2726,14.8527 188.2726,14.4847 C188.2726,14.1167 188.3956,13.8057 188.6396,13.5507 C188.8856,13.2957 189.1916,13.1687 189.5586,13.1687 L204.8076,13.1687 C205.1756,13.1687 205.4866,13.2957 205.7416,13.5507" id="Fill-12" fill="#231F20"></path>
            <path d="M223.1498,26.5185 L219.0158,16.5665 L214.8818,26.5185 L223.1498,26.5185 Z M228.7538,32.7035 C228.8558,32.9495 228.9068,33.2095 228.9068,33.4845 C228.9068,33.7605 228.7848,34.0315 228.5398,34.2965 C228.2948,34.5605 227.9058,34.6945 227.3758,34.6945 C226.8438,34.6945 226.4568,34.4085 226.2128,33.8365 L224.2218,29.0605 L213.8098,29.0605 L211.8208,33.8365 C211.5748,34.4085 211.1868,34.6945 210.6568,34.6945 C210.1258,34.6945 209.7388,34.5605 209.4928,34.2965 C209.2488,34.0315 209.1258,33.7605 209.1258,33.4845 C209.1258,33.2095 209.1758,32.9495 209.2788,32.7035 L217.0878,14.2695 C217.4548,13.4335 218.0458,13.0155 218.8628,13.0155 L219.1698,13.0155 C219.9858,13.0155 220.5778,13.4335 220.9458,14.2695 L228.7538,32.7035 Z" id="Fill-14" fill="#231F20"></path>
            <path d="M250.1117,32.1679 C250.3867,32.4439 250.5247,32.7759 250.5247,33.1639 C250.5247,33.5509 250.3867,33.8779 250.1117,34.1429 C249.8357,34.4089 249.5037,34.5409 249.1157,34.5409 L238.2457,34.5409 C237.7157,34.5409 237.2597,34.3529 236.8827,33.9749 C236.5057,33.5979 236.3167,33.1429 236.3167,32.6119 L236.3167,14.4229 C236.3167,14.0359 236.4497,13.7039 236.7147,13.4279 C236.9797,13.1529 237.3067,13.0149 237.6947,13.0149 C238.0827,13.0149 238.4147,13.1529 238.6897,13.4279 C238.9657,13.7039 239.1027,14.0359 239.1027,14.4229 L239.1027,31.7549 L249.1157,31.7549 C249.5037,31.7549 249.8357,31.8929 250.1117,32.1679" id="Fill-16" fill="#231F20"></path>
            <path d="M106.9755,49.9912 L106.9755,56.7582 L116.4075,56.7582 C116.7745,56.7582 117.0855,56.8862 117.3405,57.1412 C117.5965,57.3962 117.7245,57.7072 117.7245,58.0742 C117.7245,58.4422 117.5965,58.7482 117.3405,58.9932 C117.0855,59.2382 116.7745,59.3612 116.4075,59.3612 L106.9755,59.3612 L106.9755,67.5362 C106.9755,67.9242 106.8385,68.2512 106.5625,68.5162 C106.2875,68.7812 105.9545,68.9142 105.5675,68.9142 C105.1795,68.9142 104.8525,68.7812 104.5875,68.5162 C104.3225,68.2512 104.1895,67.9242 104.1895,67.5362 L104.1895,48.7972 C104.1895,48.4092 104.3225,48.0772 104.5875,47.8012 C104.8525,47.5262 105.1795,47.3882 105.5675,47.3882 L117.4785,47.3882 C117.8465,47.3882 118.1575,47.5162 118.4125,47.7712 C118.6675,48.0272 118.7955,48.3382 118.7955,48.7052 C118.7955,49.0732 118.6675,49.3782 118.4125,49.6232 C118.1575,49.8682 117.8465,49.9912 117.4785,49.9912 L106.9755,49.9912 Z" id="Fill-18" fill="#231F20"></path>
            <path d="M136.0043,66.4653 C138.4933,66.4653 140.4543,65.6583 141.8833,64.0453 C143.2713,62.4953 143.9653,60.5043 143.9653,58.0743 C143.9653,55.6463 143.2713,53.6553 141.8833,52.1033 C140.4543,50.4913 138.4933,49.6843 136.0043,49.6843 C133.5133,49.6843 131.5533,50.4913 130.1243,52.1033 C128.7363,53.6553 128.0423,55.6463 128.0423,58.0743 C128.0423,60.5043 128.7363,62.4953 130.1243,64.0453 C131.5533,65.6583 133.5133,66.4653 136.0043,66.4653 M136.0043,47.0823 C139.2293,47.0823 141.8213,48.1123 143.7813,50.1743 C145.6803,52.1953 146.6703,54.8283 146.7523,58.0743 C146.6703,61.3203 145.6803,63.9543 143.7813,65.9753 C141.8213,68.0373 139.2293,69.0673 136.0043,69.0673 C132.7583,69.0673 130.1653,68.0373 128.2263,65.9753 C126.2863,63.9343 125.2973,61.3003 125.2563,58.0743 C125.2973,54.8493 126.2863,52.2163 128.2263,50.1743 C130.1653,48.1123 132.7583,47.0823 136.0043,47.0823" id="Fill-20" fill="#231F20"></path>
            <path d="M163.3783,57.7993 C165.0933,57.7993 166.4773,57.4623 167.5273,56.7883 C168.5783,56.1153 169.1053,55.1253 169.1053,53.8183 C169.1053,52.5933 168.6953,51.6753 167.8803,51.0633 C166.8993,50.3693 165.3483,50.0213 163.2253,50.0213 L157.8363,50.0213 L157.8363,57.7993 L163.3783,57.7993 Z M171.7073,67.5363 C171.7073,67.9243 171.5743,68.2513 171.3103,68.5163 C171.0443,68.7813 170.7073,68.9143 170.2993,68.9143 C169.8903,68.9143 169.5593,68.7863 169.3033,68.5323 C169.0483,68.2773 168.9213,67.9453 168.9213,67.5363 L168.9213,66.6173 C168.9213,64.9643 168.7373,63.7503 168.3693,62.9743 C168.0023,62.1983 167.5023,61.5813 166.8693,61.1223 C166.2363,60.6623 165.3383,60.4323 164.1743,60.4323 L157.8363,60.4323 L157.8363,67.5363 C157.8363,67.9243 157.6983,68.2513 157.4223,68.5163 C157.1483,68.7813 156.8163,68.9143 156.4283,68.9143 C156.0393,68.9143 155.7133,68.7813 155.4473,68.5163 C155.1823,68.2513 155.0503,67.9243 155.0503,67.5363 L155.0503,48.7973 C155.0503,48.4093 155.1823,48.0773 155.4473,47.8013 C155.7133,47.5263 156.0393,47.3883 156.4283,47.3883 L163.5623,47.3883 C166.3583,47.3883 168.4723,47.9813 169.9003,49.1643 C171.2283,50.2873 171.8913,51.7663 171.8913,53.6043 C171.8913,54.7883 171.5593,55.8903 170.8963,56.9113 C170.2323,57.9323 169.2273,58.6773 167.8803,59.1463 C169.3493,59.5343 170.4103,60.5963 171.0643,62.3303 C171.4923,63.4943 171.7073,64.7603 171.7073,66.1283 L171.7073,67.5363 Z" id="Fill-22" fill="#231F20"></path>
            <path d="M195.8666,64.9643 C196.0296,64.8833 196.2606,64.8413 196.5556,64.8413 C196.8516,64.8413 197.1066,64.9603 197.3206,65.1933 C197.5356,65.4283 197.6426,65.6993 197.6426,66.0063 C197.6426,66.5563 197.4186,66.9443 196.9696,67.1693 C196.0096,67.7003 194.9836,68.1493 193.8916,68.5163 C192.7996,68.8843 191.4926,69.0673 189.9716,69.0673 C188.4516,69.0673 187.0376,68.8173 185.7316,68.3173 C184.4256,67.8173 183.2916,67.0883 182.3326,66.1283 C180.2916,64.1273 179.2696,61.4433 179.2696,58.0743 C179.2696,54.7063 180.2916,52.0223 182.3326,50.0213 C184.3116,48.0623 186.8646,47.0823 189.9876,47.0823 C191.4986,47.0823 192.7996,47.2663 193.8916,47.6333 C194.9836,48.0013 195.8206,48.3423 196.4026,48.6593 C196.9846,48.9753 197.3366,49.2313 197.4596,49.4243 C197.5816,49.6183 197.6426,49.8633 197.6426,50.1593 C197.6426,50.4563 197.5356,50.7213 197.3206,50.9553 C197.1066,51.1913 196.8516,51.3073 196.5556,51.3073 C196.2606,51.3073 196.0296,51.2673 195.8666,51.1853 C195.0506,50.7563 194.2136,50.4093 193.3556,50.1443 C192.4986,49.8793 191.4306,49.7463 190.1556,49.7463 C188.8806,49.7463 187.7266,49.9603 186.6956,50.3893 C185.6646,50.8183 184.8026,51.4103 184.1086,52.1653 C182.7406,53.6553 182.0566,55.6253 182.0566,58.0743 C182.0566,60.5243 182.7406,62.4953 184.1086,63.9853 C185.5986,65.5973 187.6496,66.4033 190.2626,66.4033 C191.4676,66.4033 192.4986,66.2713 193.3556,66.0063 C194.2136,65.7403 195.0506,65.3933 195.8666,64.9643" id="Fill-24" fill="#231F20"></path>
            <path d="M220.1645,66.541 C220.4195,66.797 220.5475,67.108 220.5475,67.476 C220.5475,67.843 220.4195,68.149 220.1645,68.394 C219.9085,68.639 219.5985,68.761 219.2305,68.761 L206.9515,68.761 C206.5635,68.761 206.2365,68.629 205.9715,68.363 C205.7065,68.099 205.5735,67.772 205.5735,67.384 L205.5735,48.797 C205.5735,48.409 205.7065,48.077 205.9715,47.801 C206.2365,47.526 206.5635,47.388 206.9515,47.388 L219.2305,47.388 C219.5985,47.388 219.9085,47.516 220.1645,47.771 C220.4195,48.027 220.5475,48.338 220.5475,48.705 C220.5475,49.073 220.4195,49.378 220.1645,49.624 C219.9085,49.869 219.5985,49.991 219.2305,49.991 L208.3595,49.991 L208.3595,56.758 L218.1285,56.758 C218.4955,56.758 218.8065,56.886 219.0615,57.141 C219.3165,57.396 219.4445,57.707 219.4445,58.075 C219.4445,58.442 219.3165,58.749 219.0615,58.994 C218.8065,59.238 218.4955,59.361 218.1285,59.361 L208.3595,59.361 L208.3595,66.159 L219.2305,66.159 C219.5985,66.159 219.9085,66.287 220.1645,66.541" id="Fill-26" fill="#231F20"></path>
        </g>
    </g>
</svg>